<?xml version="1.0" encoding="UTF-8"?>
<mxfile host="app.diagrams.net">
  <diagram name="Facebook Registration Flow" id="Xl0pZGw1qTz7QW5Y4UoG">
    <mxGraphModel dx="1024" dy="768" grid="1" gridSize="10" guides="1" tooltips="1" connect="1" arrows="1" fold="1" page="1" pageScale="1" pageWidth="827" pageHeight="1169">
      <root>
        <mxCell id="0"/>
        <mxCell id="1" parent="0"/>

        <!-- Actors -->
        <mxCell id="NewUser" value="👤 New User<br/>Người dùng mới" style="shape=actor;fillColor=#e1f5fe;strokeColor=#01579b;fontColor=#000000;" vertex="1" parent="1">
          <mxGeometry x="20" y="20" width="120" height="60" as="geometry"/>
        </mxCell>
        <mxCell id="ExistingUser" value="👤 Existing User<br/>Người dùng cũ" style="shape=actor;fillColor=#e1f5fe;strokeColor=#01579b;fontColor=#000000;" vertex="1" parent="1">
          <mxGeometry x="20" y="140" width="120" height="60" as="geometry"/>
        </mxCell>
        <mxCell id="System" value="🔧 Facebook System<br/>Hệ thống Facebook" style="rounded=1;fillColor=#e8f5e8;strokeColor=#1b5e20;fontColor=#000000;" vertex="1" parent="1">
          <mxGeometry x="700" y="20" width="180" height="60" as="geometry"/>
        </mxCell>

        <!-- Use Cases -->
        <!-- User Flow -->
        <mxCell id="UC1" value="📝 Enter Personal Info<br/>Nhập thông tin cá nhân" style="ellipse;fillColor=#f3e5f5;strokeColor=#4a148c;" vertex="1" parent="1">
          <mxGeometry x="200" y="20" width="180" height="60" as="geometry"/>
        </mxCell>
        <mxCell id="UC2" value="📅 Select DOB<br/>Chọn ngày sinh" style="ellipse;fillColor=#f3e5f5;strokeColor=#4a148c;" vertex="1" parent="1">
          <mxGeometry x="200" y="90" width="180" height="60" as="geometry"/>
        </mxCell>
        <mxCell id="UC3" value="⚤ Select Gender<br/>Chọn giới tính" style="ellipse;fillColor=#f3e5f5;strokeColor=#4a148c;" vertex="1" parent="1">
          <mxGeometry x="200" y="160" width="180" height="60" as="geometry"/>
        </mxCell>
        <mxCell id="UC4" value="📧 Enter Contact Info<br/>Nhập thông tin liên lạc" style="ellipse;fillColor=#f3e5f5;strokeColor=#4a148c;" vertex="1" parent="1">
          <mxGeometry x="200" y="230" width="180" height="60" as="geometry"/>
        </mxCell>
        <mxCell id="UC5" value="🔒 Create Password<br/>Tạo mật khẩu" style="ellipse;fillColor=#f3e5f5;strokeColor=#4a148c;" vertex="1" parent="1">
          <mxGeometry x="200" y="300" width="180" height="60" as="geometry"/>
        </mxCell>
        <mxCell id="UC6" value="✅ Accept Terms<br/>Chấp nhận điều khoản" style="ellipse;fillColor=#f3e5f5;strokeColor=#4a148c;" vertex="1" parent="1">
          <mxGeometry x="200" y="370" width="180" height="60" as="geometry"/>
        </mxCell>
        <mxCell id="UC7" value="🚀 Submit Registration<br/>Gửi đăng ký" style="ellipse;fillColor=#f3e5f5;strokeColor=#4a148c;" vertex="1" parent="1">
          <mxGeometry x="200" y="440" width="180" height="60" as="geometry"/>
        </mxCell>
        <mxCell id="UC8" value="🔍 Navigate to Login<br/>Chuyển đến đăng nhập" style="ellipse;fillColor=#f3e5f5;strokeColor=#4a148c;" vertex="1" parent="1">
          <mxGeometry x="400" y="140" width="180" height="60" as="geometry"/>
        </mxCell>

        <!-- System actions -->
        <mxCell id="UC9" value="✔️ Validate Input<br/>Xác thực dữ liệu" style="ellipse;fillColor=#e8f5e8;strokeColor=#1b5e20;" vertex="1" parent="1">
          <mxGeometry x="600" y="440" width="180" height="60" as="geometry"/>
        </mxCell>
        <mxCell id="UC10" value="💾 Store Data<br/>Lưu dữ liệu" style="ellipse;fillColor=#e8f5e8;strokeColor=#1b5e20;" vertex="1" parent="1">
          <mxGeometry x="600" y="510" width="180" height="60" as="geometry"/>
        </mxCell>
        <mxCell id="UC11" value="📨 Send Confirmation<br/>Gửi xác nhận" style="ellipse;fillColor=#e8f5e8;strokeColor=#1b5e20;" vertex="1" parent="1">
          <mxGeometry x="600" y="580" width="180" height="60" as="geometry"/>
        </mxCell>
        <mxCell id="UC12" value="⚠️ Display Errors<br/>Hiển thị lỗi" style="ellipse;fillColor=#e8f5e8;strokeColor=#1b5e20;" vertex="1" parent="1">
          <mxGeometry x="600" y="650" width="180" height="60" as="geometry"/>
        </mxCell>

        <!-- Edges -->
        <mxCell style="endArrow=block" edge="1" source="NewUser" target="UC1" parent="1"><mxGeometry relative="1" as="geometry"/></mxCell>
        <mxCell style="endArrow=block" edge="1" source="NewUser" target="UC2" parent="1"><mxGeometry relative="1" as="geometry"/></mxCell>
        <mxCell style="endArrow=block" edge="1" source="NewUser" target="UC3" parent="1"><mxGeometry relative="1" as="geometry"/></mxCell>
        <mxCell style="endArrow=block" edge="1" source="NewUser" target="UC4" parent="1"><mxGeometry relative="1" as="geometry"/></mxCell>
        <mxCell style="endArrow=block" edge="1" source="NewUser" target="UC5" parent="1"><mxGeometry relative="1" as="geometry"/></mxCell>
        <mxCell style="endArrow=block" edge="1" source="NewUser" target="UC6" parent="1"><mxGeometry relative="1" as="geometry"/></mxCell>
        <mxCell style="endArrow=block" edge="1" source="NewUser" target="UC7" parent="1"><mxGeometry relative="1" as="geometry"/></mxCell>
        <mxCell style="endArrow=block" edge="1" source="ExistingUser" target="UC8" parent="1"><mxGeometry relative="1" as="geometry"/></mxCell>

        <mxCell style="endArrow=block" edge="1" source="UC7" target="UC9" parent="1"><mxGeometry relative="1" as="geometry"/></mxCell>
        <mxCell style="endArrow=block" edge="1" source="UC9" target="UC10" parent="1"><mxGeometry relative="1" as="geometry"/></mxCell>
        <mxCell style="endArrow=block" edge="1" source="UC10" target="UC11" parent="1"><mxGeometry relative="1" as="geometry"/></mxCell>
        <mxCell style="endArrow=block" edge="1" source="UC9" target="UC12" parent="1"><mxGeometry relative="1" as="geometry"/></mxCell>

        <mxCell style="endArrow=open;dashed=1;" edge="1" source="UC1" target="UC9" parent="1"><mxGeometry relative="1" as="geometry"/></mxCell>
        <mxCell style="endArrow=open;dashed=1;" edge="1" source="UC2" target="UC9" parent="1"><mxGeometry relative="1" as="geometry"/></mxCell>
        <mxCell style="endArrow=open;dashed=1;" edge="1" source="UC3" target="UC9" parent="1"><mxGeometry relative="1" as="geometry"/></mxCell>
        <mxCell style="endArrow=open;dashed=1;" edge="1" source="UC4" target="UC9" parent="1"><mxGeometry relative="1" as="geometry"/></mxCell>
        <mxCell style="endArrow=open;dashed=1;" edge="1" source="UC5" target="UC9" parent="1"><mxGeometry relative="1" as="geometry"/></mxCell>

        <mxCell style="endArrow=block" edge="1" source="System" target="UC9" parent="1"><mxGeometry relative="1" as="geometry"/></mxCell>
        <mxCell style="endArrow=block" edge="1" source="System" target="UC10" parent="1"><mxGeometry relative="1" as="geometry"/></mxCell>
        <mxCell style="endArrow=block" edge="1" source="System" target="UC11" parent="1"><mxGeometry relative="1" as="geometry"/></mxCell>
        <mxCell style="endArrow=block" edge="1" source="System" target="UC12" parent="1"><mxGeometry relative="1" as="geometry"/></mxCell>

      </root>
    </mxGraphModel>
  </diagram>
</mxfile>
